# xmcd CD database file
#
# Track frame offsets:
#	150
#	14435
#	29300
#	48862
#	70082
#	86020
#	109502
#	122745
#	136407
#	155337
#	171832
#	185735
#	199282
#	227660
#	244577
#	289202
#
# Disc length: 4082 seconds
#
# Revision: 0
# Processed by: cddbd v1.5.1PL0 Copyright (c) Steve Scherf et al.
# Submitted via: CDex 1.51
#
DISCID=db0ff010
DTITLE=Topper Headon - Waking Up
DYEAR=1992
DGENRE=Jazz
TTITLE0=Leave it to luck
TTITLE1=I'll give you everything
TTITLE2=Hope for Donna
TTITLE3=Got to keep on going
TTITLE4=Dancing
TTITLE5=Du Cane Road (Jaz's Mix)
TTITLE6=Drumming Man
TTITLE7=You're so cheeky
TTITLE8=Pleasure and pain
TTITLE9=Time is tight
TTITLE10=When you're down
TTITLE11=Just another hit
TTITLE12=Got to get out of this heat SOS
TTITLE13=Monkey on my back
TTITLE14=East versus west
TTITLE15=Casablanca
EXTD=YEAR: 1992
EXTT0=
EXTT1=
EXTT2=
EXTT3=
EXTT4=
EXTT5=
EXTT6=
EXTT7=
EXTT8=
EXTT9=
EXTT10=
EXTT11=
EXTT12=
EXTT13=
EXTT14=
EXTT15=
PLAYORDER=
